inDegrees=yes
name=ik_data_2024_11_07_17_56
DataType=double
version=3
OpenSimVersion=4.5.1
endheader
time	pelvis_tilt	pelvis_list	pelvis_rotation	pelvis_tx	pelvis_ty	pelvis_tz	hip_flexion_r	hip_adduction_r	hip_rotation_r	knee_angle_r	knee_angle_r_beta	ankle_angle_r	subtalar_angle_r	mtp_angle_r	hip_flexion_l	hip_adduction_l	hip_rotation_l	knee_angle_l	knee_angle_l_beta	ankle_angle_l	subtalar_angle_l	mtp_angle_l	lumbar_extension	lumbar_bending	lumbar_rotation	arm_flex_r	arm_add_r	arm_rot_r	elbow_flex_r	pro_sup_r	wrist_flex_r	wrist_dev_r	arm_flex_l	arm_add_l	arm_rot_l	elbow_flex_l	pro_sup_l	wrist_flex_l	wrist_dev_l
7.55145	-1.063302828610279	-4.233722402137767	-29.75056072067437	0	0.9399999999999999	0	44.76564254768098	20.67436076754656	25.56159711237307	59.04864713187625	1.030593311299547	-4.428895969200651	0	0	-0.9699212136176952	-4.358027374281956	-39.84078802198532	0.4339759782311365	0.00757430969469657	-4.428895969200651	0	0	0	0	0	0	-3.209202123908015	0	60.07867201028516	49.0360309032993	0	0	0	-3.209202123908015	0	60.07867201028516	49.0360309032993	0	0
7.60839	-1.289503319013295	-4.318967357452221	-30.1389288634429	0	0.9399999999999999	0	41.87977047133233	20.71484474489175	26.62902321189416	55.32109853419329	0.9655353152418817	-4.433624257118314	0	0	-0.8447044301568922	-4.516577597650127	-39.90336780640238	0.3763546305375472	0.006568627458006995	-4.433624257118314	0	0	0	0	0	0	-3.220444209089806	0	60.1071797638067	49.01550627985157	0	0	0	-3.220444209089806	0	60.1071797638067	49.01550627985157	0	0
7.61302	-1.098970591636637	-3.87118425883291	-26.39254758618307	0	0.9399999999999999	0	39.23575452866208	17.00329337395276	25.28157096473075	51.01204685586029	0.8903281758163833	-4.446866798794217	0	0	-0.5441370674686776	-4.109954992367373	-36.91143120319984	0.4643169601342865	0.008103859727194553	-4.446866798794217	0	0	0	0	0	0	-3.252102287218339	0	60.18749931595776	48.95779869908677	0	0	0	-3.252102287218339	0	60.18749931595776	48.95779869908677	0	0
7.65956	-1.085726413212078	-3.569732459365831	-23.10610184336727	0	0.9399999999999999	0	37.42464783228232	14.07852333837813	23.67823689369324	47.44569544296225	0.8280836013781606	-4.461025911248899	0	0	-0.1906007337549575	-3.860345101528849	-33.63805123354984	0.5052711585944363	0.008818645332839357	-4.461025911248899	0	0	0	0	0	0	-3.286717148396762	0	60.2750218312235	48.89550876477039	0	0	0	-3.286717148396762	0	60.2750218312235	48.89550876477039	0	0
7.72624	-1.110129640159934	-3.39879834312229	-21.21539845348212	0	0.9399999999999999	0	35.03042443286218	12.25488561498256	22.97379314058714	43.09297334592665	0.7521142693605775	-4.473127113611795	0	0	0.03359089370811394	-3.717868320412627	-31.74834685498108	0.5081676825173425	0.008869199212156852	-4.473127113611795	0	0	0	0	0	0	-3.317019585872592	0	60.35134704070138	48.84173935722671	0	0	0	-3.317019585872592	0	60.35134704070138	48.84173935722671	0	0
7.79149	-1.146876411033961	-3.286424368420353	-20.07231767347391	0	0.9399999999999999	0	32.41264033467696	11.36942653063956	22.65004442402658	40.15473512847397	0.7008323382580991	-4.477967573526882	0	0	0.1722240412418657	-3.620149131508686	-30.59769261865213	0.5099322991277966	0.008899997582044659	-4.477967573526882	0	0	0	0	0	0	-3.329310957013405	0	60.38223881444541	48.82010660668828	0	0	0	-3.329310957013405	0	60.38223881444541	48.82010660668828	0	0
7.79442	-1.023344280530115	-2.978082085936934	-16.90496364480904	0	0.9399999999999999	0	29.84891813886892	9.119394299122744	20.68723058273709	36.52533800127762	0.6374874085260992	-4.487640718663191	0	0	0.3265117312972609	-3.26727618145087	-27.43106335231419	0.496709467111823	0.008669215626927801	-4.487640718663191	0	0	0	0	0	0	-3.354149119840247	0	60.44457375365635	48.77665822279128	0	0	0	-3.354149119840247	0	60.44457375365635	48.77665822279128	0	0
7.84312	-0.9503544769655626	-2.642128658560335	-13.7225599545509	0	0.9399999999999999	0	27.46080833831986	6.801775130739707	18.60460556627277	33.30037643259288	0.5812012109022694	-4.501501644836749	0	0	0.5226724646201043	-2.917143318823748	-24.26576318911785	0.5044518648537518	0.008804345959523433	-4.501501644836749	0	0	0	0	0	0	-3.390355803855598	0	60.53524747918382	48.71390810654132	0	0	0	-3.390355803855598	0	60.53524747918382	48.71390810654132	0	0
7.91117	-1.001322923316577	-2.375829021956156	-11.02857529201892	0	0.9399999999999999	0	25.09422862293655	5.145978916228257	16.71403750595124	30.20318034972512	0.5271449416763558	-4.515367908670851	0	0	0.7673418049507943	-2.623863572403641	-21.55846318560006	0.4964743943746472	0.008665112833682407	-4.515367908670851	0	0	0	0	0	0	-3.427468294882301	0	60.62786807228779	48.65046533911092	0	0	0	-3.427468294882301	0	60.62786807228779	48.65046533911092	0	0
7.9721	-0.9364990521362334	-2.19488540968338	-9.30073498343314	0	0.9399999999999999	0	22.42200441676384	4.04305027698246	15.58456375861337	27.64511955299794	0.4824983583072772	-4.519660719424603	0	0	0.8187152535658127	-2.402202495384317	-19.83410320384284	0.5053392279725806	0.008819833367607759	-4.519660719424603	0	0	0	0	0	0	-3.439212593287257	0	60.65706217476217	48.63065633845701	0	0	0	-3.439212593287257	0	60.65706217476217	48.63065633845701	0	0
7.97436	-0.9839161554883796	-2.105855824493358	-8.473042075068205	0	0.9399999999999999	0	20.13877381651821	3.392427764358279	15.18046384688611	25.13176363503641	0.4386320222643638	-4.520765624130479	0	0	0.9236682989313159	-2.329208124293192	-19.01000687434043	0.5387368647899975	0.009402732092456966	-4.520765624130479	0	0	0	0	0	0	-3.442252602446668	0	60.66460333534754	48.62555152717284	0	0	0	-3.442252602446668	0	60.66460333534754	48.62555152717284	0	0
8.027710000000001	-0.902264766844327	-1.848081878240983	-6.129687310333418	0	0.9399999999999999	0	17.83012685596246	2.270147958800463	13.35594821726114	22.45074039100336	0.3918393393334879	-4.531871228618168	0	0	0.9492036414450234	-2.017350453455417	-16.6711041393301	0.5107908612918425	0.008914982318640307	-4.531871228618168	0	0	0	0	0	0	-3.47297469462298	0	60.74090028347138	48.57401577891022	0	0	0	-3.47297469462298	0	60.74090028347138	48.57401577891022	0	0
8.09178	-0.91499112854356	-1.670074971726044	-4.278544058562609	0	0.9399999999999999	0	15.74034797114751	1.692639476596981	11.87579531126785	19.8206685894921	0.3459359268332575	-4.539617699127184	0	0	1.048673395620433	-1.816217023370519	-14.82505198866534	0.5152708883613981	0.008993173541582527	-4.539617699127184	0	0	0	0	0	0	-3.49485934635601	0	60.79507000384971	48.53775166535621	0	0	0	-3.49485934635601	0	60.79507000384971	48.53775166535621	0	0
